<svg xmlns="http://www.w3.org/2000/svg" width="331.547" height="80.535" viewBox="0 0 331.547 80.535">
  <g id="Groupe_849" data-name="Groupe 849" transform="translate(-647.208 -218.687)">
    <g id="Groupe_844" data-name="Groupe 844">
      <path id="Tracé_633" data-name="Tracé 633" d="M754.3,245.2a8.114,8.114,0,0,1-.373,2.328,6.738,6.738,0,0,1-3.424,4.079,7.077,7.077,0,0,1-3.323.712H724.874a3.016,3.016,0,0,1-1.175-.226,2.837,2.837,0,0,1-1.56-1.559,3.043,3.043,0,0,1-.226-1.176V222.871a3.005,3.005,0,0,1,.848-2.1,2.771,2.771,0,0,1,.938-.633,3.016,3.016,0,0,1,1.175-.226h19.663a7.912,7.912,0,0,1,2.328.384,7.114,7.114,0,0,1,2.317,1.232,6.758,6.758,0,0,1,1.785,2.2,7.079,7.079,0,0,1,.712,3.323v1.107a12.1,12.1,0,0,1-.52,3.357,11.114,11.114,0,0,1-1.672,3.4,10.407,10.407,0,0,1,1.864,1.469,9.432,9.432,0,0,1,1.526,1.989,10.586,10.586,0,0,1,1.04,2.554,12.054,12.054,0,0,1,.384,3.142Zm-5.877-1.13a5.588,5.588,0,0,0-.361-2.068,4.563,4.563,0,0,0-1.017-1.571,4.414,4.414,0,0,0-1.582-1.006,5.857,5.857,0,0,0-2.079-.35H730.14v-5.922h10.6a5.831,5.831,0,0,0,2.079-.35,4.328,4.328,0,0,0,2.588-2.577,5.738,5.738,0,0,0,.351-2.068v-1.107q0-1.266-1.221-1.266H727.79v20.658h19.391c.106,0,.234-.008.385-.023a.837.837,0,0,0,.723-.52,1.694,1.694,0,0,0,.135-.746Z" fill="#2e2e2d"/>
      <path id="Tracé_634" data-name="Tracé 634" d="M788.7,252.32H767.5a9.435,9.435,0,0,1-2.667-.429,7.8,7.8,0,0,1-4.735-3.967,8.205,8.205,0,0,1-.825-3.853v-21.2a2.963,2.963,0,0,1,.226-1.153,3,3,0,0,1,.622-.949,2.771,2.771,0,0,1,.938-.633,3.015,3.015,0,0,1,1.175-.226H788.7v5.876H765.15v18.285a2.387,2.387,0,0,0,.61,1.763,2.423,2.423,0,0,0,1.785.61H788.7Zm-2.645-13.244H767.5v-5.922h18.556Z" fill="#2e2e2d"/>
      <path id="Tracé_635" data-name="Tracé 635" d="M825.405,242.782a10.322,10.322,0,0,1-.441,3.13,9.358,9.358,0,0,1-1.164,2.453,7.762,7.762,0,0,1-1.7,1.808,10.471,10.471,0,0,1-2.011,1.221,10.077,10.077,0,0,1-2.114.7,9.811,9.811,0,0,1-2.023.226H793.288v-5.876h22.669a3.444,3.444,0,0,0,2.634-.995,3.728,3.728,0,0,0,.937-2.667,4.319,4.319,0,0,0-.248-1.491,3.449,3.449,0,0,0-.712-1.176,3.149,3.149,0,0,0-1.13-.768,3.894,3.894,0,0,0-1.481-.271H802.442a10.48,10.48,0,0,1-3.074-.509,9.2,9.2,0,0,1-3.062-1.639,8.933,8.933,0,0,1-2.351-2.96,11.118,11.118,0,0,1,0-8.939,9.007,9.007,0,0,1,5.413-4.61,10.447,10.447,0,0,1,3.074-.509h20v5.876h-20a3.373,3.373,0,0,0-2.61,1.017,3.809,3.809,0,0,0-.938,2.69,3.716,3.716,0,0,0,.938,2.678,3.436,3.436,0,0,0,2.61.983H816a10.388,10.388,0,0,1,2.011.26,10.1,10.1,0,0,1,2.114.734,10.234,10.234,0,0,1,2,1.255,8.448,8.448,0,0,1,1.683,1.819,8.954,8.954,0,0,1,1.165,2.441A10.486,10.486,0,0,1,825.405,242.782Z" fill="#2e2e2d"/>
      <path id="Tracé_636" data-name="Tracé 636" d="M862.675,249.811a2.891,2.891,0,0,1-.238,1.176,3.028,3.028,0,0,1-.632.937,2.878,2.878,0,0,1-.939.622,2.955,2.955,0,0,1-1.152.226,3.174,3.174,0,0,1-1.1-.2,2.558,2.558,0,0,1-.984-.656l-21.471-22.42V252.32h-5.876v-29.9a2.814,2.814,0,0,1,.508-1.639,3.159,3.159,0,0,1,1.3-1.1,2.983,2.983,0,0,1,1.718-.17,2.794,2.794,0,0,1,1.514.825l21.471,22.4V219.91h5.877Z" fill="#2e2e2d"/>
      <path id="Tracé_637" data-name="Tracé 637" d="M901.3,252.32h-5.876v-7.956H874.766v7.956H868.89V236.115a17.1,17.1,0,0,1,1.22-6.532,15.237,15.237,0,0,1,3.391-5.13,15.408,15.408,0,0,1,5.13-3.345,17.067,17.067,0,0,1,6.464-1.2H898.34a2.958,2.958,0,0,1,1.152.226,2.912,2.912,0,0,1,1.582,1.582,2.981,2.981,0,0,1,.226,1.153Zm-26.534-13.832h20.658v-12.7H885.095q-.271,0-1.141.079a11.628,11.628,0,0,0-2.012.4,12.593,12.593,0,0,0-2.407.972,8.439,8.439,0,0,0-2.328,1.808,9.271,9.271,0,0,0-1.752,2.881,11.35,11.35,0,0,0-.689,4.193Z" fill="#2e2e2d"/>
      <path id="Tracé_638" data-name="Tracé 638" d="M940.514,230.8a11.949,11.949,0,0,1-.5,3.593,10.09,10.09,0,0,1-1.345,2.792,9.446,9.446,0,0,1-1.955,2.067,11.773,11.773,0,0,1-2.316,1.413,11.085,11.085,0,0,1-2.441.8,11.723,11.723,0,0,1-2.317.249l12.273,10.6h-9.086l-12.25-10.6h-4.226v-5.876h13.289a6.811,6.811,0,0,0,2.023-.464,5.009,5.009,0,0,0,1.582-1.006,4.3,4.3,0,0,0,1.028-1.525,5.415,5.415,0,0,0,.362-2.045V227.1a1.828,1.828,0,0,0-.124-.757.916.916,0,0,0-.317-.385.927.927,0,0,0-.407-.146,3.822,3.822,0,0,0-.4-.023H914V252.32h-5.876V222.871a2.963,2.963,0,0,1,.226-1.153,3,3,0,0,1,.621-.949,2.79,2.79,0,0,1,.938-.633,3.019,3.019,0,0,1,1.175-.226h22.308a7.072,7.072,0,0,1,3.322.712,6.765,6.765,0,0,1,2.2,1.785,6.922,6.922,0,0,1,1.22,2.317,8.118,8.118,0,0,1,.374,2.328Z" fill="#2e2e2d"/>
      <path id="Tracé_639" data-name="Tracé 639" d="M978.755,238.759a14.1,14.1,0,0,1-1.029,5.447,12.742,12.742,0,0,1-7.13,7.1,14.133,14.133,0,0,1-5.4,1.017H949.328a3.024,3.024,0,0,1-1.176-.226,2.839,2.839,0,0,1-1.559-1.559,3.024,3.024,0,0,1-.226-1.176V222.871a3.006,3.006,0,0,1,.848-2.1,2.777,2.777,0,0,1,.937-.633,3.024,3.024,0,0,1,1.176-.226h15.866a14.133,14.133,0,0,1,5.4,1.017,12.709,12.709,0,0,1,7.13,7.108,14.132,14.132,0,0,1,1.029,5.436Zm-5.877-5.288a8.605,8.605,0,0,0-.553-3.142,6.889,6.889,0,0,0-1.571-2.43,7.091,7.091,0,0,0-2.43-1.559,8.513,8.513,0,0,0-3.13-.554H952.243v20.658h12.951a8.513,8.513,0,0,0,3.13-.554,7.091,7.091,0,0,0,2.43-1.559,6.907,6.907,0,0,0,1.571-2.419,8.574,8.574,0,0,0,.553-3.153Z" fill="#2e2e2d"/>
    </g>
    <g id="Groupe_845" data-name="Groupe 845">
      <path id="Tracé_640" data-name="Tracé 640" d="M728.275,271.7H723.7V260.764h4.394c2.135,0,3.38,1.2,3.38,3.073a2.533,2.533,0,0,1-1.352,2.259,2.541,2.541,0,0,1,1.505,2.457A3.023,3.023,0,0,1,728.275,271.7Zm-.353-9.034h-2.089v2.52h2.089a1.268,1.268,0,1,0,0-2.52Zm.138,4.44h-2.227V269.8h2.227a1.347,1.347,0,1,0,0-2.689Z" fill="#2e2e2d"/>
      <path id="Tracé_641" data-name="Tracé 641" d="M740.29,267.217V271.7h-2.12v-4.486l-3.288-6.453h2.32l2.043,4.41,2.013-4.41h2.319Z" fill="#2e2e2d"/>
      <path id="Tracé_642" data-name="Tracé 642" d="M757.051,271.7h-1.6l-3.61-10.939h2.212l2.2,7.129,2.2-7.129h2.227Z" fill="#2e2e2d"/>
      <path id="Tracé_643" data-name="Tracé 643" d="M764.3,271.7V260.764h2.136V271.7Z" fill="#2e2e2d"/>
      <path id="Tracé_644" data-name="Tracé 644" d="M777.1,271.7l-2.135-4.363H773.43V271.7h-2.136V260.764h4.286a3.307,3.307,0,0,1,3.549,3.35,2.944,2.944,0,0,1-2,2.872l2.443,4.717Zm-1.659-9.034H773.43v2.889h2.012a1.448,1.448,0,1,0,0-2.889Z" fill="#2e2e2d"/>
      <path id="Tracé_645" data-name="Tracé 645" d="M790.36,270.535a4.1,4.1,0,0,1-3.057,1.26,4.03,4.03,0,0,1-2.95-1.2c-1.106-1.106-1.075-2.474-1.075-4.364s-.031-3.256,1.075-4.362a3.981,3.981,0,0,1,2.95-1.2,4.146,4.146,0,0,1,3.349,1.4l-1.444,1.444a2.424,2.424,0,0,0-1.905-.937,1.775,1.775,0,0,0-1.367.584c-.415.461-.523.968-.523,3.072s.108,2.627.523,3.088a1.763,1.763,0,0,0,1.367.569,1.874,1.874,0,0,0,1.46-.615,2.2,2.2,0,0,0,.476-1.49V267.4H787.3v-1.782h4.071v1.567A4.368,4.368,0,0,1,790.36,270.535Z" fill="#2e2e2d"/>
      <path id="Tracé_646" data-name="Tracé 646" d="M802.359,270.6a4.248,4.248,0,0,1-5.914,0c-1.106-1.106-1.075-2.474-1.075-4.364s-.031-3.256,1.075-4.362a4.246,4.246,0,0,1,5.914,0c1.107,1.106,1.091,2.473,1.091,4.362S803.466,269.491,802.359,270.6Zm-1.582-7.436a1.775,1.775,0,0,0-1.367-.584,1.811,1.811,0,0,0-1.383.584c-.415.461-.522.968-.522,3.072s.107,2.612.522,3.073a1.811,1.811,0,0,0,1.383.584,1.775,1.775,0,0,0,1.367-.584c.415-.461.538-.968.538-3.073S801.192,263.622,800.777,263.161Z" fill="#2e2e2d"/>
      <path id="Tracé_647" data-name="Tracé 647" d="M820.52,270.535a4.1,4.1,0,0,1-3.058,1.26,4.028,4.028,0,0,1-2.949-1.2c-1.106-1.106-1.076-2.474-1.076-4.364s-.03-3.256,1.076-4.362a3.979,3.979,0,0,1,2.949-1.2,4.146,4.146,0,0,1,3.349,1.4l-1.444,1.444a2.422,2.422,0,0,0-1.905-.937,1.777,1.777,0,0,0-1.367.584c-.415.461-.522.968-.522,3.072s.107,2.627.522,3.088a1.764,1.764,0,0,0,1.367.569,1.874,1.874,0,0,0,1.46-.615,2.2,2.2,0,0,0,.476-1.49V267.4h-1.936v-1.782h4.071v1.567A4.372,4.372,0,0,1,820.52,270.535Z" fill="#2e2e2d"/>
      <path id="Tracé_648" data-name="Tracé 648" d="M831.7,271.7l-2.135-4.363h-1.536V271.7H825.9V260.764h4.287a3.306,3.306,0,0,1,3.548,3.35,2.944,2.944,0,0,1-2,2.872l2.443,4.717Zm-1.659-9.034h-2.012v2.889h2.012a1.448,1.448,0,1,0,0-2.889Z" fill="#2e2e2d"/>
      <path id="Tracé_649" data-name="Tracé 649" d="M844.871,270.6a4.249,4.249,0,0,1-5.915,0c-1.106-1.106-1.075-2.474-1.075-4.364s-.031-3.256,1.075-4.362a4.247,4.247,0,0,1,5.915,0c1.106,1.106,1.091,2.473,1.091,4.362S845.977,269.491,844.871,270.6Zm-1.582-7.436a1.778,1.778,0,0,0-1.368-.584,1.81,1.81,0,0,0-1.382.584c-.415.461-.523.968-.523,3.072s.108,2.612.523,3.073a1.81,1.81,0,0,0,1.382.584,1.778,1.778,0,0,0,1.368-.584c.415-.461.537-.968.537-3.073S843.7,263.622,843.289,263.161Z" fill="#2e2e2d"/>
      <path id="Tracé_650" data-name="Tracé 650" d="M854.3,271.8a3.8,3.8,0,0,1-4.025-3.841v-7.19h2.135v7.113a1.9,1.9,0,1,0,3.8,0v-7.113h2.12v7.19A3.8,3.8,0,0,1,854.3,271.8Z" fill="#2e2e2d"/>
      <path id="Tracé_651" data-name="Tracé 651" d="M867.256,267.586h-2.1V271.7h-2.136V260.764h4.24a3.417,3.417,0,1,1,0,6.822Zm-.107-4.917h-2v3h2a1.5,1.5,0,1,0,0-3Z" fill="#2e2e2d"/>
    </g>
    <g id="Groupe_846" data-name="Groupe 846">
      <path id="Tracé_653" data-name="Tracé 653" d="M697.583,233.255l-17.672,21.257-17.672-21.257-15.03,2.676,32.7,38.054,32.7-38.054Z" fill="#3273a2"/>
    </g>
    <g id="Groupe_848" data-name="Groupe 848">
      <g id="Groupe_847" data-name="Groupe 847">
        <path id="Tracé_655" data-name="Tracé 655" d="M723.587,295.6l2.6-11.3h6.3l-.262,1.11h-5.044l-.9,3.885h4.147l-.261,1.11h-4.13l-.947,4.081h5.044l-.245,1.11Z" fill="#c50015"/>
        <path id="Tracé_656" data-name="Tracé 656" d="M734.426,287.436h1.257l1.094,3.216,2.546-3.216h1.306l-3.412,4.179,1.453,3.983H737.4l-1.061-3.15-2.514,3.15H732.5l3.363-4.081Z" fill="#c50015"/>
        <path id="Tracé_657" data-name="Tracé 657" d="M747.126,287.273q2.123,0,2.122,2.4A8.166,8.166,0,0,1,748.2,293.7a4.275,4.275,0,0,1-1.29,1.485,2.941,2.941,0,0,1-1.747.571,7.616,7.616,0,0,1-1.861-.228l-.326-.081-.865,3.77h-1.208l2.709-11.786h1.192l-.31,1.453c.1-.12.229-.269.392-.449a5.123,5.123,0,0,1,.939-.718A2.422,2.422,0,0,1,747.126,287.273Zm-.343,1.061a2.015,2.015,0,0,0-1.11.482,6.021,6.021,0,0,0-1.061.971l-.424.473-.98,4.2a8.712,8.712,0,0,0,1.943.244,1.957,1.957,0,0,0,1.559-.865,5.5,5.5,0,0,0,.979-1.975,8.113,8.113,0,0,0,.3-2.139Q747.991,288.335,746.783,288.334Z" fill="#c50015"/>
        <path id="Tracé_658" data-name="Tracé 658" d="M753.15,293.215a1.385,1.385,0,0,0,.424,1.085,1.5,1.5,0,0,0,1.045.384,11.412,11.412,0,0,0,2.383-.261l.408-.1-.1.963a9.013,9.013,0,0,1-2.791.473q-2.595,0-2.6-2.481a7.938,7.938,0,0,1,1.029-4.048,4.09,4.09,0,0,1,1.4-1.42,3.669,3.669,0,0,1,1.967-.539q2.415,0,2.416,1.991a2.1,2.1,0,0,1-1.094,2.033,7.816,7.816,0,0,1-3.477.579h-.833A4.943,4.943,0,0,0,753.15,293.215Zm1.24-2.3a5.955,5.955,0,0,0,2.4-.351,1.292,1.292,0,0,0,.735-1.281q0-.98-1.257-.98-2.008,0-2.776,2.612Z" fill="#c50015"/>
        <path id="Tracé_659" data-name="Tracé 659" d="M760.691,295.6l1.894-8.162h1.208l-.294,1.208a7.785,7.785,0,0,1,2.955-1.387l-.327,1.257a12.723,12.723,0,0,0-2.366.979l-.49.245-1.355,5.86Z" fill="#c50015"/>
        <path id="Tracé_660" data-name="Tracé 660" d="M769.523,293.95q0,.75.816.75l1.257-.1-.082.931a6.186,6.186,0,0,1-1.616.228,1.71,1.71,0,0,1-1.208-.407,1.418,1.418,0,0,1-.44-1.094,7.36,7.36,0,0,1,.261-1.73l.946-4.033H768.38l.277-1.061h1.062l.571-2.416h1.224l-.587,2.416h2.285l-.261,1.061h-2.285l-.947,4.1A5.687,5.687,0,0,0,769.523,293.95Z" fill="#c50015"/>
        <path id="Tracé_661" data-name="Tracé 661" d="M780.9,288.562a18.145,18.145,0,0,0-2.49-.228,2.061,2.061,0,0,0-1.445.465,1.468,1.468,0,0,0-.506,1.118.658.658,0,0,0,.294.588,5.464,5.464,0,0,0,1.363.474,5.129,5.129,0,0,1,1.576.628,1.339,1.339,0,0,1,.506,1.184,2.614,2.614,0,0,1-1,2.2,4.076,4.076,0,0,1-2.563.767,8.971,8.971,0,0,1-2.2-.294l-.375-.081.228-.947a14.959,14.959,0,0,0,2.49.261,2.637,2.637,0,0,0,1.575-.424,1.434,1.434,0,0,0,.588-1.241.692.692,0,0,0-.311-.644,5.759,5.759,0,0,0-1.346-.441,4.646,4.646,0,0,1-1.543-.612,1.287,1.287,0,0,1-.506-1.127,2.715,2.715,0,0,1,.914-2.122,3.33,3.33,0,0,1,2.3-.816,9.96,9.96,0,0,1,2.318.261l.375.082Z" fill="#c50015"/>
        <path id="Tracé_662" data-name="Tracé 662" d="M789.356,287.436h1.208l.131,7.118h.489l3.559-7.118H796l-5.958,11.77H788.8l1.877-3.608h-1.11Z" fill="#c50015"/>
        <path id="Tracé_663" data-name="Tracé 663" d="M801.518,287.273q2.824,0,2.824,2.775a7.968,7.968,0,0,1-.482,2.808,4.925,4.925,0,0,1-1.444,2.1,3.359,3.359,0,0,1-2.22.807q-2.791,0-2.792-2.677A7.125,7.125,0,0,1,798.571,289,3.459,3.459,0,0,1,801.518,287.273ZM800.2,294.7a2.4,2.4,0,0,0,2.114-1.379,6.4,6.4,0,0,0,.808-3.289,1.824,1.824,0,0,0-.4-1.241,1.51,1.51,0,0,0-1.2-.457,2.379,2.379,0,0,0-2.082,1.428,6.678,6.678,0,0,0-.807,3.339A1.4,1.4,0,0,0,800.2,294.7Z" fill="#c50015"/>
        <path id="Tracé_664" data-name="Tracé 664" d="M809.141,295.761a1.81,1.81,0,0,1-1.436-.555,2.085,2.085,0,0,1-.49-1.436,9.307,9.307,0,0,1,.326-2.188l.963-4.146h1.208l-.946,4.065a8.6,8.6,0,0,0-.311,1.959q0,1.224,1.111,1.224a1.984,1.984,0,0,0,1.118-.457,5.425,5.425,0,0,0,1-.914l.392-.457,1.256-5.42h1.208l-1.877,8.162h-1.192l.294-1.42q-.147.18-.383.441a4.963,4.963,0,0,1-.931.7A2.465,2.465,0,0,1,809.141,295.761Z" fill="#c50015"/>
        <path id="Tracé_665" data-name="Tracé 665" d="M823.31,293.215a1.383,1.383,0,0,0,.425,1.085,1.5,1.5,0,0,0,1.044.384,11.429,11.429,0,0,0,2.384-.261l.408-.1-.1.963a9.019,9.019,0,0,1-2.792.473q-2.6,0-2.6-2.481a7.948,7.948,0,0,1,1.028-4.048,4.1,4.1,0,0,1,1.4-1.42,3.672,3.672,0,0,1,1.967-.539q2.415,0,2.416,1.991A2.1,2.1,0,0,1,827.8,291.3a7.816,7.816,0,0,1-3.477.579h-.832A4.9,4.9,0,0,0,823.31,293.215Zm1.241-2.3a5.946,5.946,0,0,0,2.4-.351,1.292,1.292,0,0,0,.735-1.281q0-.98-1.257-.98-2.008,0-2.775,2.612Z" fill="#c50015"/>
        <path id="Tracé_666" data-name="Tracé 666" d="M832.011,287.436h1.257l1.093,3.216,2.547-3.216h1.306l-3.412,4.179,1.453,3.983h-1.273l-1.061-3.15-2.514,3.15h-1.322l3.362-4.081Z" fill="#c50015"/>
        <path id="Tracé_667" data-name="Tracé 667" d="M844.711,287.273q2.122,0,2.122,2.4a8.168,8.168,0,0,1-1.045,4.032,4.264,4.264,0,0,1-1.289,1.485,2.944,2.944,0,0,1-1.747.571,7.611,7.611,0,0,1-1.861-.228l-.327-.081-.865,3.77h-1.208l2.71-11.786h1.192l-.31,1.453c.1-.12.228-.269.391-.449a5.2,5.2,0,0,1,.939-.718A2.424,2.424,0,0,1,844.711,287.273Zm-.343,1.061a2.012,2.012,0,0,0-1.11.482,6.021,6.021,0,0,0-1.061.971l-.424.473-.98,4.2a8.7,8.7,0,0,0,1.943.244,1.958,1.958,0,0,0,1.559-.865,5.511,5.511,0,0,0,.979-1.975,8.153,8.153,0,0,0,.3-2.139Q845.576,288.335,844.368,288.334Z" fill="#c50015"/>
        <path id="Tracé_668" data-name="Tracé 668" d="M850.734,293.215a1.386,1.386,0,0,0,.425,1.085,1.5,1.5,0,0,0,1.045.384,11.419,11.419,0,0,0,2.383-.261l.408-.1-.1.963a9.018,9.018,0,0,1-2.791.473q-2.6,0-2.6-2.481a7.938,7.938,0,0,1,1.029-4.048,4.1,4.1,0,0,1,1.4-1.42,3.672,3.672,0,0,1,1.967-.539q2.417,0,2.416,1.991a2.1,2.1,0,0,1-1.093,2.033,7.821,7.821,0,0,1-3.477.579h-.833A4.9,4.9,0,0,0,850.734,293.215Zm1.241-2.3a5.955,5.955,0,0,0,2.4-.351,1.291,1.291,0,0,0,.734-1.281q0-.98-1.257-.98-2.007,0-2.775,2.612Z" fill="#c50015"/>
        <path id="Tracé_669" data-name="Tracé 669" d="M862.994,287.273a7.8,7.8,0,0,1,1.746.228l.294.082-.31.947a10.019,10.019,0,0,0-1.763-.2,2.27,2.27,0,0,0-1.681.718,5.436,5.436,0,0,0-1.323,4,1.737,1.737,0,0,0,.392,1.232,1.705,1.705,0,0,0,1.29.416,7.516,7.516,0,0,0,1.5-.179l.326-.065-.082.963a7.738,7.738,0,0,1-2.261.342,2.4,2.4,0,0,1-1.779-.644,2.485,2.485,0,0,1-.645-1.837q0-3.494,1.894-5.142A3.534,3.534,0,0,1,862.994,287.273Z" fill="#c50015"/>
        <path id="Tracé_670" data-name="Tracé 670" d="M868.56,293.95q0,.75.817.75l1.257-.1-.082.931a6.192,6.192,0,0,1-1.616.228,1.708,1.708,0,0,1-1.208-.407,1.419,1.419,0,0,1-.441-1.094,7.415,7.415,0,0,1,.261-1.73l.947-4.033h-1.077l.277-1.061h1.061l.572-2.416h1.224l-.588,2.416h2.286l-.262,1.061H869.7l-.947,4.1A5.737,5.737,0,0,0,868.56,293.95Z" fill="#c50015"/>
      </g>
    </g>
    <path id="Tracé_671" data-name="Tracé 671" d="M697.583,233.255l-8.248-14.567,13.971,2.081,9.307,15.162Z" fill="#004272"/>
    <path id="Tracé_672" data-name="Tracé 672" d="M670.486,218.687,663.6,230.846c3.714,6.054,9.629,10.41,16.308,10.41s12.6-4.356,16.309-10.41l-6.885-12.159h-.009c-.162,5.808-4.578,9.881-9.408,9.881s-9.247-4.073-9.409-9.881h-.022" fill="#c50015"/>
    <path id="Tracé_673" data-name="Tracé 673" d="M662.238,233.255l8.248-14.567-13.971,2.081-9.307,15.162Z" fill="#004272"/>
  </g>
</svg>
